#!OML:ASF E:\motion texture\Top Level 1\Subject 1\Session 1\male.ASF
:FULLY-SPECIFIED
:DEGREES
341
root -24.9046 17.4504 2.33891 22.4869 -72.8758 -10.5966
lowerback 6.88861 -1.48549 3.68441
upperback -0.506698 -1.5516 4.89692
thorax -4.35852 -0.83653 3.1923
lowerneck -15.4718 -4.64099 -6.34426
upperneck -3.57459 -5.4161 5.78272
head 1.90677 -2.58189 2.66837
rclavicle 5.36719e-015 -5.00937e-014
rhumerus -56.8819 5.48233 -74.1027
rradius 73.723
rwrist -2.46608
rhand -19.7773 -24.4039
rfingers 7.12502
rthumb 6.55481 -54.2824
lclavicle 5.36719e-015 -5.00937e-014
lhumerus -47.3721 -3.74089 81.1414
lradius 51.9808
lwrist -9.63354
lhand -20.8567 17.6603
lfingers 7.12502
lthumb 5.51271 47.5686
rfemur -18.8095 -2.30671 19.154
rtibia 65.2895
rfoot 8.09281 -10.8718
rtoes 1.39825
lfemur -40.6121 9.42771 -21.4849
ltibia 40.0867
lfoot -15.9268 18.0367
ltoes -14.0209
342
root -25.0919 17.4474 2.36536 19.9791 -71.2064 -8.2258
lowerback 6.87529 -1.62691 3.60232
upperback -0.497589 -1.74623 4.81663
thorax -4.33611 -0.929556 3.17365
lowerneck -15.4454 -4.88588 -6.5251
upperneck -3.71246 -5.70577 5.73354
head 1.87801 -2.72627 2.6639
rclavicle 0 3.89618e-014
rhumerus -57.4661 5.11666 -74.4233
rradius 73.2787
rwrist -4.26079
rhand -18.8675 -24.1534
rfingers 7.12502
rthumb 7.43306 -54.0028
lclavicle 0 3.89618e-014
lhumerus -46.1438 -4.01351 81.4742
lradius 51.9104
lwrist -9.82304
lhand -20.9526 17.6493
lfingers 7.12502
lthumb 5.42012 47.56
rfemur -20.2866 -2.76741 19.5393
rtibia 67.2231
rfoot 6.06654 -9.88925
rtoes 0.461313
lfemur -39.8896 9.33595 -22.0164
ltibia 40.4156
lfoot -16.6102 18.2025
ltoes -14.3645
343
root -25.2778 17.4402 2.39171 17.8298 -69.5166 -6.20925
lowerback 6.87271 -1.7676 3.50739
upperback -0.490178 -1.94032 4.72913
thorax -4.32134 -1.02211 3.15499
lowerneck -15.3957 -5.11992 -6.65398
upperneck -3.88086 -5.9913 5.68225
head 1.83253 -2.86947 2.64982
rclavicle 4.49253e-014 1.27222e-014
rhumerus -57.7774 4.65835 -74.8052
rradius 72.6621
rwrist -6.07365
rhand -17.7252 -23.9053
rfingers 7.12502
rthumb 8.53554 -53.7128
lclavicle 4.49253e-014 1.27222e-014
lhumerus -44.8362 -4.27773 81.7626
lradius 51.9083
lwrist -9.89377
lhand -20.8156 17.5887
lfingers 7.12502
lthumb 5.55238 47.496
rfemur -21.7844 -3.26596 19.8697
rtibia 68.9201
rfoot 4.1463 -9.38148
rtoes -0.164704
lfemur -39.1816 9.18785 -22.4979
ltibia 40.7174
lfoot -17.1631 17.9408
ltoes -14.7444
344
root -25.4632 17.429 2.41939 15.9049 -67.8149 -4.42543
lowerback 6.88683 -1.91036 3.40006
upperback -0.479937 -2.13764 4.62642
thorax -4.31298 -1.11609 3.12833
lowerneck -15.3247 -5.34356 -6.74015
upperneck -4.08792 -6.27186 5.63785
head 1.76856 -3.01082 2.63126
rclavicle 3.97569e-016 4.77083e-015
rhumerus -57.803 4.13255 -75.2404
rradius 71.8621
rwrist -7.81774
rhand -16.4243 -23.686
rfingers 7.12502
rthumb 9.79085 -53.4384
lclavicle 3.97569e-016 4.77083e-015
lhumerus -43.4322 -4.54332 82.0177
lradius 51.955
lwrist -9.76914
lhand -20.5298 17.4874
lfingers 7.12502
lthumb 5.82831 47.3872
rfemur -23.268 -3.81538 20.106
rtibia 70.3719
rfoot 2.32029 -9.29491
rtoes -0.736142
lfemur -38.4627 8.93204 -22.9478
ltibia 41.0023
lfoot -17.6233 17.2807
ltoes -15.0511
345
root -25.6481 17.4139 2.44855 14.1704 -66.1084 -2.83525
lowerback 6.91879 -2.0522 3.28333
upperback -0.481356 -2.3332 4.50799
thorax -4.32714 -1.2091 3.09163
lowerneck -15.2202 -5.55154 -6.77676
upperneck -4.31453 -6.54184 5.59545
head 1.68951 -3.14756 2.60612
rclavicle -4.81059e-014 0
rhumerus -57.5626 3.56533 -75.7326
rradius 70.8663
rwrist -9.43873
rhand -15.0917 -23.4956
rfingers 7.12502
rthumb 11.0763 -53.1833
lclavicle -4.81059e-014 0
lhumerus -41.9611 -4.84449 82.2501
lradius 52.0494
lwrist -9.44215
lhand -20.1655 17.4081
lfingers 7.12502
lthumb 6.18003 47.2979
rfemur -24.7296 -4.39563 20.2404
rtibia 71.5725
rfoot 0.51947 -9.57687
rtoes -1.36282
lfemur -37.7505 8.53468 -23.3588
ltibia 41.3108
lfoot -18.0001 16.3067
ltoes -15.1089
346
root -25.8327 17.3948 2.47943 12.6175 -64.4073 -1.44054
lowerback 6.9619 -2.18958 3.17295
upperback -0.487133 -2.52202 4.38076
thorax -4.35299 -1.29905 3.04241
lowerneck -15.087 -5.74213 -6.78496
upperneck -4.56761 -6.7953 5.56967
head 1.5952 -3.27626 2.58393
rclavicle -3.53837e-014 2.8625e-014
rhumerus -57.0643 3.00095 -76.2891
rradius 69.6857
rwrist -10.9364
rhand -13.888 -23.3653
rfingers 7.12502
rthumb 12.2371 -52.9873
lclavicle -3.53837e-014 2.8625e-014
lhumerus -40.3895 -5.19596 82.4738
lradius 52.1361
lwrist -8.89266
lhand -19.9071 17.3354
lfingers 7.12502
lthumb 6.42947 47.2178
rfemur -26.1556 -4.98636 20.2814
rtibia 72.5242
rfoot -1.25689 -10.1616
rtoes -2.04265
lfemur -37.0354 7.99072 -23.711
ltibia 41.6537
lfoot -18.318 15.1123
ltoes -14.739
347
root -26.0164 17.372 2.51261 11.2155 -62.7104 -0.220105
lowerback 7.02447 -2.31767 3.08817
upperback -0.497938 -2.69561 4.24632
thorax -4.39714 -1.38219 2.97124
lowerneck -14.9236 -5.92001 -6.78155
upperneck -4.84369 -7.03559 5.57098
head 1.48818 -3.39814 2.57126
rclavicle -3.4191e-014 -1.59028e-015
rhumerus -56.3248 2.46778 -76.9112
rradius 68.3373
rwrist -12.3396
rhand -12.9769 -23.3025
rfingers 7.12502
rthumb 13.1154 -52.8701
lclavicle -3.4191e-014 -1.59028e-015
lhumerus -38.7136 -5.60621 82.6896
lradius 52.1963
lwrist -8.22931
lhand -19.7788 17.3244
lfingers 7.12502
lthumb 6.55338 47.203
rfemur -27.521 -5.57385 20.2217
rtibia 73.2275
rfoot -3.01393 -10.9969
rtoes -2.6848
lfemur -36.3113 7.29535 -24.0074
ltibia 42.0411
lfoot -18.5681 13.7839
ltoes -13.8318
348
root -26.199 17.3455 2.54807 9.94204 -61.0413 0.848251
lowerback 7.10408 -2.42163 3.02209
upperback -0.51012 -2.83512 4.11058
thorax -4.4545 -1.44902 2.88597
lowerneck -14.7506 -6.09628 -6.79832
upperneck -5.11937 -7.27109 5.61603
head 1.38299 -3.51627 2.57834
rclavicle 1.98785e-015 2.22639e-014
rhumerus -55.3524 1.98367 -77.5848
rradius 66.8464
rwrist -13.6569
rhand -12.4264 -23.3268
rfingers 7.12502
rthumb 13.6461 -52.8595
lclavicle 1.98785e-015 2.22639e-014
lhumerus -36.9194 -6.08132 82.8931
lradius 52.2232
lwrist -7.56196
lhand -19.7799 17.3666
lfingers 7.12502
lthumb 6.55231 47.2452
rfemur -28.8225 -6.12028 20.0528
rtibia 73.6836
rfoot -4.70406 -12.0441
rtoes -3.16545
lfemur -35.5879 6.49926 -24.2634
ltibia 42.4886
lfoot -18.7468 12.4116
ltoes -12.4333
349
root -26.3807 17.3157 2.5857 8.81143 -59.4189 1.74275
lowerback 7.18563 -2.49583 2.98934
upperback -0.522712 -2.93253 3.98259
thorax -4.51606 -1.49593 2.78611
lowerneck -14.5474 -6.27069 -6.85386
upperneck -5.40138 -7.49956 5.72514
head 1.27596 -3.62912 2.61603
rclavicle 8.0309e-014 1.11319e-014
rhumerus -54.1629 1.58746 -78.3054
rradius 65.2481
rwrist -14.8815
rhand -12.2466 -23.471
rfingers 7.12502
rthumb 13.8194 -52.9919
lclavicle 8.0309e-014 1.11319e-014
lhumerus -35.0159 -6.5861 83.0654
lradius 52.214
lwrist -6.96635
lhand -19.8536 17.4514
lfingers 7.12502
lthumb 6.48113 47.3323
rfemur -30.043 -6.57374 19.7921
rtibia 73.8959
rfoot -6.2846 -13.2747
rtoes -3.28948
lfemur -34.8575 5.66415 -24.4668
ltibia 42.983
lfoot -18.8886 11.0761
ltoes -10.7348
350
root -26.562 17.2824 2.6241 7.75296 -57.8855 2.53419
lowerback 7.28439 -2.51847 2.93979
upperback -0.531472 -2.96239 3.8597
thorax -4.584 -1.50911 2.69451
lowerneck -14.3458 -6.45326 -6.9563
upperneck -5.66671 -7.73123 5.89142
head 1.18119 -3.74147 2.68177
rclavicle -1.27222e-014 -9.54166e-015
rhumerus -52.7523 1.27641 -79.0412
rradius 63.5669
rwrist -15.9692
rhand -12.3052 -23.7823
rfingers 7.12502
rthumb 13.7629 -53.307
lclavicle -1.27222e-014 -9.54166e-015
lhumerus -33.0014 -7.12913 83.2022
lradius 52.1772
lwrist -6.45247
lhand -19.9087 17.6004
lfingers 7.12502
lthumb 6.42795 47.4828
rfemur -31.1807 -6.87557 19.4108
rtibia 73.8838
rfoot -7.70838 -14.6645
rtoes -3.05921
lfemur -34.1173 4.86654 -24.6485
ltibia 43.5256
lfoot -19.0424 9.81273
ltoes -8.97196
351
root -26.7424 17.2458 2.66182 6.78993 -56.4557 3.21213
lowerback 7.38774 -2.48611 2.87203
upperback -0.540833 -2.92057 3.75058
thorax -4.65511 -1.48646 2.6197
lowerneck -14.1515 -6.63958 -7.10094
upperneck -5.9029 -7.96073 6.10875
head 1.1032 -3.85075 2.7727
rclavicle -9.42239e-014 5.08889e-014
rhumerus -51.1167 1.07583 -79.7743
rradius 61.8212
rwrist -16.8787
rhand -12.4875 -24.2151
rfingers 7.12502
rthumb 13.5872 -53.7517
lclavicle -9.42239e-014 5.08889e-014
lhumerus -30.9177 -7.71531 83.2883
lradius 52.1705
lwrist -5.94342
lhand -19.9002 17.8137
lfingers 7.12502
lthumb 6.4362 47.6959
rfemur -32.2523 -6.97143 18.9244
rtibia 73.6595
rfoot -8.97254 -16.172
rtoes -2.34913
lfemur -33.397 4.15373 -24.7935
ltibia 44.1268
lfoot -19.2673 8.65415
ltoes -7.39175
